<svg width="89" height="32" viewBox="0 0 89 32" fill="none" xmlns="http://www.w3.org/2000/svg">
<path d="M29.1168 17.5014C29.1168 10.5035 34.3803 5.62869 41.7281 5.62869C47.9639 5.62869 51.8794 9.28338 51.8794 14.4986C51.8794 21.4965 46.616 26.3713 39.2682 26.3713C33.0324 26.3713 29.1168 22.7166 29.1168 17.5014ZM45.076 14.8938C45.076 12.5977 43.6175 11.0401 41.1575 11.0401C37.8388 11.0401 35.9232 13.8467 35.9232 17.1033C35.9232 19.3994 37.3817 20.9571 39.8417 20.9571C43.1604 20.9571 45.076 18.1504 45.076 14.8938Z" fill="white"/>
<path d="M63.006 6.08156L60.0599 20.7321H69.0962L68.0394 25.9184H52.2521L56.2549 6.08156H63.006Z" fill="white"/>
<path d="M75.332 11.2679H69.4688L70.5256 6.08156H89L87.9432 11.2679H82.0801L79.134 25.9184H72.3858L75.332 11.2679Z" fill="white"/>
<path fill-rule="evenodd" clip-rule="evenodd" d="M78.6856 25.3762L80.2693 17.4927C78.4178 17.637 76.511 17.7581 74.5605 17.8533L73.0467 25.3762H78.6856Z" fill="white"/>
<path fill-rule="evenodd" clip-rule="evenodd" d="M54.418 17.9427L52.9158 25.379H67.5882L68.4266 21.2744H59.3932L60.0308 18.0956C58.1268 18.0668 56.2549 18.0148 54.418 17.9427Z" fill="white"/>
<path fill-rule="evenodd" clip-rule="evenodd" d="M39.2682 25.8319C41.4545 25.8319 43.5767 25.4079 45.5185 24.3925C47.3205 23.4493 48.7557 22.1253 49.7921 20.3888C50.2899 19.5552 50.6567 18.6812 50.9071 17.7754C48.9682 17.6658 47.076 17.5302 45.2419 17.3745C45.1575 17.637 45.0585 17.8966 44.9421 18.1504C44.4967 19.1369 43.8358 19.9619 42.9421 20.5821C42.0192 21.2224 40.9625 21.5022 39.8417 21.5022C38.6131 21.5022 37.4574 21.1734 36.5782 20.2936C35.7165 19.4283 35.3759 18.3091 35.3759 17.1091C35.3759 16.8178 35.3904 16.5264 35.4196 16.238C33.4516 15.9438 31.5913 15.6207 29.8534 15.2688C29.7253 15.9986 29.6641 16.7457 29.6641 17.5043C29.6641 19.0475 30.0106 20.5186 30.8286 21.8397C31.635 23.1435 32.7675 24.0954 34.1503 24.7675C35.7456 25.5435 37.5069 25.8319 39.2711 25.8319" fill="white"/>
<path fill-rule="evenodd" clip-rule="evenodd" d="M12.4141 16.5495C9.27579 9.84298 5.52909 8.8334 4.55384 0.5C-10.7415 13.7573 17.826 12.69 12.679 29.5472L19.7415 16.5495H12.4141Z" fill="white"/>
<path fill-rule="evenodd" clip-rule="evenodd" d="M23.8039 14.9428H13.0005L20.8956 0.5H28.456L22.5055 11.4641L29.3439 11.4699L12.82 31.5L23.8039 14.9428Z" fill="white"/>
</svg>
